<svg width="140" height="39" viewBox="0 0 140 39" fill="none" xmlns="http://www.w3.org/2000/svg">
<g filter="url(#filter0_d_11123_153)">
<path d="M26.8771 9.281C22.59 13.7699 22.8398 17.5276 27.8209 20.7723C26.6495 23.3255 25.4689 25.9546 22.9716 27.49C22.0733 28.0423 20.5047 28.0875 19.4733 27.7183C17.4119 26.9802 15.5045 26.845 13.5177 27.7463C11.9665 28.4502 10.5635 28.2415 9.22276 27.1536C5.42437 24.0732 3.02111 16.3819 4.38648 11.7055C5.45653 8.04053 9.631 4.58741 14.1566 7.01052C15.8539 7.91905 17.4146 7.48617 19.0613 6.81204C22.2886 5.49116 24.8318 6.3422 26.8771 9.281Z" fill="#202020"/>
<path d="M21.0436 0C21.392 3.36996 19.2009 6.08804 15.9113 6.48294C15.1209 3.56057 17.5097 0.479761 21.0436 0Z" fill="#202020"/>
<path d="M46.5685 13.592H43.8802V5.17383H46.5685C47.839 5.17383 48.8655 5.58191 49.648 6.39806C50.4305 7.20581 50.8217 8.20287 50.8217 9.38924C50.8217 10.584 50.4305 11.5853 49.648 12.393C48.8739 13.1924 47.8474 13.592 46.5685 13.592ZM46.5685 12.9357C47.6454 12.9357 48.4953 12.5992 49.1179 11.9261C49.7489 11.2529 50.0645 10.4073 50.0645 9.38924C50.0645 8.37115 49.7531 7.52554 49.1305 6.85242C48.5079 6.17089 47.6539 5.83012 46.5685 5.83012H44.5996V12.9357H46.5685Z" fill="#202020"/>
<path d="M55.1682 13.7435C54.2931 13.7435 53.5863 13.4364 53.0479 12.8222C52.5094 12.2079 52.2401 11.4465 52.2401 10.5378C52.2401 9.62904 52.5094 8.87178 53.0479 8.26597C53.5863 7.65175 54.2931 7.34464 55.1682 7.34464C56.0516 7.34464 56.7626 7.65175 57.3011 8.26597C57.8396 8.87178 58.1089 9.62904 58.1089 10.5378C58.1089 11.4465 57.8396 12.2079 57.3011 12.8222C56.7626 13.4364 56.0516 13.7435 55.1682 13.7435ZM55.1682 13.1503C55.8581 13.1503 56.4008 12.8979 56.7963 12.393C57.2002 11.8798 57.4021 11.2614 57.4021 10.5378C57.4021 9.82256 57.2002 9.21255 56.7963 8.70771C56.4008 8.19445 55.8581 7.93783 55.1682 7.93783C54.4866 7.93783 53.9439 8.19445 53.5401 8.70771C53.1446 9.21255 52.9469 9.82256 52.9469 10.5378C52.9469 11.2529 53.1446 11.8672 53.5401 12.3804C53.9439 12.8937 54.4866 13.1503 55.1682 13.1503Z" fill="#202020"/>
<path d="M65.6599 13.592H65.0288L63.325 8.37956L61.6085 13.592H60.9775L58.996 7.49609H59.7028L61.3182 12.6707L63.0347 7.49609H63.6026L65.3191 12.6707L66.9346 7.49609H67.6414L65.6599 13.592Z" fill="#202020"/>
<path d="M73.6458 13.592H72.9895V9.46497C72.9895 8.90964 72.8633 8.51839 72.6109 8.29121C72.3585 8.05562 71.9925 7.93783 71.5129 7.93783C71.1342 7.93783 70.7598 8.03879 70.3896 8.24073C70.0194 8.44267 69.7333 8.69088 69.5314 8.98537V13.592H68.8751V7.49609H69.5314V8.41742C69.7754 8.13135 70.0993 7.88314 70.5032 7.67279C70.907 7.45402 71.3151 7.34464 71.7274 7.34464C73.0063 7.34464 73.6458 8.00514 73.6458 9.32614V13.592Z" fill="#202020"/>
<path d="M76.3472 13.592H75.6909V5.17383H76.3472V13.592Z" fill="#202020"/>
<path d="M80.9648 13.7435C80.0897 13.7435 79.383 13.4364 78.8445 12.8222C78.306 12.2079 78.0367 11.4465 78.0367 10.5378C78.0367 9.62904 78.306 8.87178 78.8445 8.26597C79.383 7.65175 80.0897 7.34464 80.9648 7.34464C81.8483 7.34464 82.5592 7.65175 83.0977 8.26597C83.6362 8.87178 83.9055 9.62904 83.9055 10.5378C83.9055 11.4465 83.6362 12.2079 83.0977 12.8222C82.5592 13.4364 81.8483 13.7435 80.9648 13.7435ZM80.9648 13.1503C81.6547 13.1503 82.1974 12.8979 82.5929 12.393C82.9968 11.8798 83.1987 11.2614 83.1987 10.5378C83.1987 9.82256 82.9968 9.21255 82.5929 8.70771C82.1974 8.19445 81.6547 7.93783 80.9648 7.93783C80.2833 7.93783 79.7406 8.19445 79.3367 8.70771C78.9412 9.21255 78.7435 9.82256 78.7435 10.5378C78.7435 11.2529 78.9412 11.8672 79.3367 12.3804C79.7406 12.8937 80.2833 13.1503 80.9648 13.1503Z" fill="#202020"/>
<path d="M90.1313 13.592H89.475V12.8726C88.9449 13.4532 88.255 13.7435 87.4052 13.7435C86.8414 13.7435 86.345 13.5626 85.9159 13.2008C85.4868 12.8306 85.2722 12.3341 85.2722 11.7115C85.2722 11.0805 85.4826 10.5882 85.9033 10.2348C86.3324 9.87305 86.833 9.69214 87.4052 9.69214C88.2634 9.69214 88.9533 9.98243 89.475 10.563V9.32614C89.475 8.88861 89.3193 8.54784 89.008 8.30383C88.6967 8.05141 88.3055 7.9252 87.8343 7.9252C87.0854 7.9252 86.4502 8.2239 85.9285 8.8213L85.5625 8.36694C86.1935 7.68541 86.976 7.34464 87.91 7.34464C88.5663 7.34464 89.1006 7.50871 89.5129 7.83686C89.9251 8.165 90.1313 8.65302 90.1313 9.30089V13.592ZM87.6323 13.226C88.4317 13.226 89.0459 12.9484 89.475 12.393V11.0552C89.0375 10.4915 88.4232 10.2096 87.6323 10.2096C87.1359 10.2096 86.732 10.3526 86.4207 10.6387C86.1178 10.9248 85.9664 11.2866 85.9664 11.7241C85.9664 12.1617 86.1178 12.5235 86.4207 12.8095C86.732 13.0872 87.1359 13.226 87.6323 13.226Z" fill="#202020"/>
<path d="M97.344 13.592H96.6751V12.6202C96.4479 12.9484 96.145 13.2176 95.7664 13.428C95.3961 13.6383 94.9923 13.7435 94.5547 13.7435C93.7386 13.7435 93.0781 13.4532 92.5733 12.8726C92.0768 12.2921 91.8286 11.518 91.8286 10.5504C91.8286 9.59118 92.081 8.81709 92.5859 8.22811C93.0907 7.63913 93.747 7.34464 94.5547 7.34464C95.4298 7.34464 96.1366 7.72327 96.6751 8.48053V5.17383H97.344V13.592ZM94.6683 13.1503C95.0806 13.1503 95.4719 13.0451 95.8421 12.8348C96.2123 12.6244 96.49 12.3678 96.6751 12.0649V9.04847C96.49 8.73716 96.2123 8.47632 95.8421 8.26597C95.4719 8.04721 95.0806 7.93783 94.6683 7.93783C94.012 7.93783 93.4904 8.18604 93.1033 8.68246C92.7247 9.17048 92.5354 9.79311 92.5354 10.5504C92.5354 11.3076 92.7247 11.9303 93.1033 12.4183C93.4904 12.9063 94.012 13.1503 94.6683 13.1503Z" fill="#202020"/>
<path d="M105.233 13.7435C104.358 13.7435 103.651 13.4364 103.113 12.8222C102.574 12.2079 102.305 11.4465 102.305 10.5378C102.305 9.62904 102.574 8.87178 103.113 8.26597C103.651 7.65175 104.358 7.34464 105.233 7.34464C106.117 7.34464 106.828 7.65175 107.366 8.26597C107.905 8.87178 108.174 9.62904 108.174 10.5378C108.174 11.4465 107.905 12.2079 107.366 12.8222C106.828 13.4364 106.117 13.7435 105.233 13.7435ZM105.233 13.1503C105.923 13.1503 106.466 12.8979 106.861 12.393C107.265 11.8798 107.467 11.2614 107.467 10.5378C107.467 9.82256 107.265 9.21255 106.861 8.70771C106.466 8.19445 105.923 7.93783 105.233 7.93783C104.552 7.93783 104.009 8.19445 103.605 8.70771C103.21 9.21255 103.012 9.82256 103.012 10.5378C103.012 11.2529 103.21 11.8672 103.605 12.3804C104.009 12.8937 104.552 13.1503 105.233 13.1503Z" fill="#202020"/>
<path d="M114.639 13.592H113.983V9.46497C113.983 8.90964 113.857 8.51839 113.604 8.29121C113.352 8.05562 112.986 7.93783 112.506 7.93783C112.128 7.93783 111.753 8.03879 111.383 8.24073C111.013 8.44267 110.727 8.69088 110.525 8.98537V13.592H109.869V7.49609H110.525V8.41742C110.769 8.13135 111.093 7.88314 111.497 7.67279C111.901 7.45402 112.309 7.34464 112.721 7.34464C114 7.34464 114.639 8.00514 114.639 9.32614V13.592Z" fill="#202020"/>
<path d="M121.276 13.7435C120.477 13.7435 120.077 13.3017 120.077 12.4183V8.07666H119.067V7.49609H120.077V5.83012H120.746V7.49609H121.983V8.07666H120.746V12.3173C120.746 12.8726 120.956 13.1503 121.377 13.1503C121.654 13.1503 121.882 13.0535 122.058 12.86L122.311 13.3649C122.042 13.6173 121.697 13.7435 121.276 13.7435Z" fill="#202020"/>
<path d="M128.197 13.592H127.541V9.43972C127.541 8.8844 127.415 8.49736 127.162 8.27859C126.91 8.05141 126.544 7.93783 126.064 7.93783C125.686 7.93783 125.311 8.03879 124.941 8.24073C124.571 8.44267 124.285 8.69088 124.083 8.98537V13.592H123.426V5.17383H124.083V8.41742C124.327 8.13135 124.651 7.88314 125.054 7.67279C125.458 7.45402 125.866 7.34464 126.279 7.34464C127.558 7.34464 128.197 7.99672 128.197 9.30089V13.592Z" fill="#202020"/>
<path d="M132.943 13.7435C132.051 13.7435 131.319 13.4448 130.747 12.8474C130.175 12.25 129.889 11.4801 129.889 10.5378C129.889 9.64587 130.166 8.89281 130.722 8.27859C131.286 7.65596 131.988 7.34464 132.829 7.34464C133.721 7.34464 134.424 7.65596 134.937 8.27859C135.45 8.89281 135.707 9.65849 135.707 10.5756V10.7523H130.608C130.642 11.4423 130.873 12.0186 131.302 12.4814C131.731 12.9442 132.295 13.1755 132.994 13.1755C133.801 13.1755 134.466 12.8937 134.988 12.3299L135.328 12.759C134.697 13.4153 133.902 13.7435 132.943 13.7435ZM135.038 10.2348C135.03 9.64587 134.832 9.11158 134.445 8.63198C134.066 8.15238 133.524 7.91258 132.817 7.91258C132.152 7.91258 131.622 8.15238 131.227 8.63198C130.84 9.10316 130.633 9.63745 130.608 10.2348H135.038Z" fill="#202020"/>
<path d="M51.5159 28.1547H49.4713L48.9538 26.7285H45.3442L44.8141 28.1547H42.7695L46.0257 19.7365H48.2723L51.5159 28.1547ZM48.4616 25.1509L47.149 21.5287L45.8364 25.1509H48.4616Z" fill="#202020"/>
<path d="M55.7388 28.3062C54.9731 28.3062 54.3463 27.9948 53.8583 27.3722V30.477H52.2554V22.0588H53.8583V22.8287C54.3379 22.2144 54.9647 21.9073 55.7388 21.9073C56.5381 21.9073 57.186 22.1934 57.6824 22.7656C58.1873 23.3293 58.4397 24.1076 58.4397 25.1004C58.4397 26.0933 58.1873 26.8758 57.6824 27.4479C57.186 28.0201 56.5381 28.3062 55.7388 28.3062ZM55.2339 26.88C55.6967 26.88 56.0669 26.7159 56.3446 26.3878C56.6307 26.0596 56.7737 25.6305 56.7737 25.1004C56.7737 24.5788 56.6307 24.1539 56.3446 23.8257C56.0669 23.4976 55.6967 23.3335 55.2339 23.3335C54.9731 23.3335 54.7123 23.4008 54.4514 23.5354C54.1906 23.6701 53.9929 23.8341 53.8583 24.0277V26.1858C53.9929 26.3794 54.1906 26.5434 54.4514 26.6781C54.7207 26.8127 54.9815 26.88 55.2339 26.88Z" fill="#202020"/>
<path d="M63.0969 28.3062C62.3312 28.3062 61.7044 27.9948 61.2164 27.3722V30.477H59.6135V22.0588H61.2164V22.8287C61.696 22.2144 62.3228 21.9073 63.0969 21.9073C63.8963 21.9073 64.5441 22.1934 65.0406 22.7656C65.5454 23.3293 65.7978 24.1076 65.7978 25.1004C65.7978 26.0933 65.5454 26.8758 65.0406 27.4479C64.5441 28.0201 63.8963 28.3062 63.0969 28.3062ZM62.5921 26.88C63.0549 26.88 63.4251 26.7159 63.7027 26.3878C63.9888 26.0596 64.1318 25.6305 64.1318 25.1004C64.1318 24.5788 63.9888 24.1539 63.7027 23.8257C63.4251 23.4976 63.0549 23.3335 62.5921 23.3335C62.3312 23.3335 62.0704 23.4008 61.8096 23.5354C61.5487 23.6701 61.351 23.8341 61.2164 24.0277V26.1858C61.351 26.3794 61.5487 26.5434 61.8096 26.6781C62.0788 26.8127 62.3397 26.88 62.5921 26.88Z" fill="#202020"/>
<path d="M73.2299 28.3062C71.7322 28.3062 70.5458 27.8602 69.6708 26.9683L70.6426 25.6053C71.3662 26.3625 72.2581 26.7412 73.3183 26.7412C73.781 26.7412 74.1386 26.6528 74.391 26.4761C74.6519 26.291 74.7823 26.068 74.7823 25.8072C74.7823 25.58 74.6603 25.3907 74.4163 25.2393C74.1807 25.0878 73.882 24.9784 73.5202 24.9111C73.1668 24.8438 72.7798 24.747 72.3591 24.6208C71.9384 24.4946 71.5471 24.3516 71.1853 24.1917C70.8319 24.0319 70.5332 23.7794 70.2892 23.4345C70.0536 23.0895 69.9358 22.6688 69.9358 22.1724C69.9358 21.4488 70.2261 20.843 70.8067 20.3549C71.3872 19.8585 72.1613 19.6103 73.1289 19.6103C74.4668 19.6103 75.5606 20.0016 76.4104 20.7841L75.4133 22.0966C74.7486 21.4824 73.9325 21.1753 72.9649 21.1753C72.5862 21.1753 72.2917 21.251 72.0814 21.4025C71.871 21.5539 71.7659 21.7601 71.7659 22.0209C71.7659 22.2228 71.8837 22.3953 72.1193 22.5384C72.3633 22.673 72.662 22.774 73.0153 22.8413C73.3771 22.9086 73.7642 23.0096 74.1765 23.1442C74.5972 23.2704 74.9842 23.4176 75.3376 23.5859C75.6994 23.7458 75.9981 24.0024 76.2337 24.3558C76.4777 24.7008 76.5997 25.1173 76.5997 25.6053C76.5997 26.413 76.3094 27.0651 75.7289 27.5615C75.1567 28.058 74.3237 28.3062 73.2299 28.3062Z" fill="#202020"/>
<path d="M79.6406 28.3062C79.0768 28.3062 78.6477 28.1631 78.3532 27.8771C78.0588 27.591 77.9115 27.1787 77.9115 26.6402V23.4597H76.9018V22.0588H77.9115V20.3928H79.527V22.0588H80.7638V23.4597H79.527V26.2111C79.527 26.4046 79.5775 26.5645 79.6784 26.6907C79.7794 26.8169 79.914 26.88 80.0823 26.88C80.3347 26.88 80.5198 26.8211 80.6376 26.7033L80.9784 27.9149C80.6839 28.1758 80.238 28.3062 79.6406 28.3062Z" fill="#202020"/>
<path d="M87.0351 27.3848C86.4461 27.9991 85.6636 28.3062 84.6876 28.3062C83.7116 28.3062 82.9291 27.9991 82.3401 27.3848C81.7595 26.7622 81.4692 26.0007 81.4692 25.1004C81.4692 24.2001 81.7595 23.4429 82.3401 22.8287C82.9291 22.2144 83.7116 21.9073 84.6876 21.9073C85.6636 21.9073 86.4461 22.2144 87.0351 22.8287C87.6241 23.4429 87.9186 24.2001 87.9186 25.1004C87.9186 26.0007 87.6241 26.7622 87.0351 27.3848ZM83.5517 26.3752C83.8294 26.7117 84.208 26.88 84.6876 26.88C85.1672 26.88 85.5458 26.7117 85.8235 26.3752C86.1096 26.0302 86.2526 25.6053 86.2526 25.1004C86.2526 24.604 86.1096 24.1875 85.8235 23.851C85.5458 23.506 85.1672 23.3335 84.6876 23.3335C84.208 23.3335 83.8294 23.506 83.5517 23.851C83.274 24.1875 83.1352 24.604 83.1352 25.1004C83.1352 25.6053 83.274 26.0302 83.5517 26.3752Z" fill="#202020"/>
<path d="M90.7106 28.1547H89.1077V22.0588H90.7106V22.8918C90.9377 22.6057 91.228 22.3701 91.5814 22.185C91.9348 21.9999 92.2924 21.9073 92.6542 21.9073V23.4723C92.5448 23.4471 92.3976 23.4345 92.2125 23.4345C91.9432 23.4345 91.6571 23.5018 91.3542 23.6364C91.0513 23.771 90.8368 23.9351 90.7106 24.1286V28.1547Z" fill="#202020"/>
<path d="M96.5207 28.3062C95.5783 28.3062 94.8 28.0117 94.1858 27.4227C93.5716 26.8337 93.2645 26.0596 93.2645 25.1004C93.2645 24.2001 93.5589 23.4429 94.1479 22.8287C94.7453 22.2144 95.5026 21.9073 96.4197 21.9073C97.3284 21.9073 98.0646 22.2186 98.6284 22.8413C99.1921 23.4555 99.474 24.2632 99.474 25.2645V25.6179H94.943C94.9935 26.0218 95.1744 26.3583 95.4857 26.6276C95.7971 26.8968 96.2009 27.0314 96.6974 27.0314C96.9666 27.0314 97.2569 26.9768 97.5682 26.8674C97.8879 26.758 98.1404 26.6107 98.3255 26.4256L99.0322 27.4606C98.418 28.0243 97.5808 28.3062 96.5207 28.3062ZM97.9216 24.5325C97.8964 24.1875 97.7575 23.8762 97.5051 23.5985C97.2611 23.3209 96.8993 23.182 96.4197 23.182C95.9653 23.182 95.612 23.3209 95.3595 23.5985C95.1071 23.8678 94.9599 24.1791 94.9178 24.5325H97.9216Z" fill="#202020"/>
</g>
<defs>
<filter id="filter0_d_11123_153" x="0" y="0" width="139.707" height="38.4766" filterUnits="userSpaceOnUse" color-interpolation-filters="sRGB">
<feFlood flood-opacity="0" result="BackgroundImageFix"/>
<feColorMatrix in="SourceAlpha" type="matrix" values="0 0 0 0 0 0 0 0 0 0 0 0 0 0 0 0 0 0 127 0" result="hardAlpha"/>
<feOffset dy="4"/>
<feGaussianBlur stdDeviation="2"/>
<feComposite in2="hardAlpha" operator="out"/>
<feColorMatrix type="matrix" values="0 0 0 0 0 0 0 0 0 0 0 0 0 0 0 0 0 0 0.25 0"/>
<feBlend mode="normal" in2="BackgroundImageFix" result="effect1_dropShadow_11123_153"/>
<feBlend mode="normal" in="SourceGraphic" in2="effect1_dropShadow_11123_153" result="shape"/>
</filter>
</defs>
</svg>
